<?xml version="1.0" encoding="UTF-8" ?>
<!DOCTYPE svg PUBLIC "-//W3C//DTD SVG 1.1//EN" "http://www.w3.org/Graphics/SVG/1.1/DTD/svg11.dtd">
<svg width="512pt" height="512pt" viewBox="0 0 512 512" version="1.1" xmlns="http://www.w3.org/2000/svg">
<g id="#e8c69cff">
<path fill="#e8c69c" opacity="1.00" d=" M 0.00 0.00 L 96.28 0.00 C 98.48 16.09 102.75 31.80 105.46 47.80 C 108.69 63.50 111.87 79.20 115.07 94.91 C 117.76 107.37 119.32 120.08 122.76 132.37 C 123.61 136.89 125.24 141.36 125.13 146.01 C 124.18 151.20 119.83 154.76 116.95 158.92 C 93.77 189.74 75.33 224.77 67.11 262.66 C 66.97 262.31 66.69 261.61 66.55 261.26 C 44.34 264.09 22.23 267.64 0.00 270.19 L 0.00 0.00 Z" />
<path fill="#e8c69c" opacity="1.00" d=" M 79.48 414.75 C 85.89 413.83 92.36 413.19 98.70 411.84 C 121.56 434.71 153.49 446.35 185.26 449.22 C 188.14 457.92 189.09 467.10 190.97 476.04 C 193.79 487.95 195.55 500.07 198.30 512.00 L 49.12 512.00 C 43.80 481.98 37.30 452.18 31.53 422.25 C 30.88 422.09 29.58 421.79 28.93 421.64 C 45.78 419.39 62.61 416.93 79.48 414.75 Z" />
</g>
<g id="#e3dcb9ff">
<path fill="#e3dcb9" opacity="1.00" d=" M 96.28 0.00 L 127.72 0.00 C 133.42 27.96 138.78 56.00 144.63 83.93 C 135.49 86.30 126.97 92.60 123.68 101.68 C 120.22 111.54 121.17 122.23 122.76 132.37 C 119.32 120.08 117.76 107.37 115.07 94.91 C 111.87 79.20 108.69 63.50 105.46 47.80 C 102.75 31.80 98.48 16.09 96.28 0.00 Z" />
<path fill="#e3dcb9" opacity="1.00" d=" M 303.69 0.00 L 342.61 0.00 C 348.11 27.63 353.67 55.26 359.14 82.90 C 345.33 72.43 328.53 67.01 311.80 63.28 C 312.79 63.47 314.77 63.84 315.76 64.03 C 311.90 44.09 307.94 24.17 303.77 4.29 C 303.45 2.87 303.64 1.43 303.69 0.00 Z" />
<path fill="#e3dcb9" opacity="1.00" d=" M 478.91 0.00 L 512.00 0.00 L 512.00 164.19 C 510.65 158.71 509.54 153.19 508.44 147.66 C 503.97 124.23 498.96 100.90 494.50 77.46 C 489.11 51.68 484.39 25.76 478.91 0.00 Z" />
<path fill="#e3dcb9" opacity="1.00" d=" M 401.05 370.52 C 406.26 369.74 411.47 368.98 416.69 368.30 C 418.47 378.66 420.48 388.99 422.77 399.25 C 430.00 436.88 438.14 474.33 445.10 512.00 L 405.57 512.00 C 401.38 492.43 397.83 472.73 393.69 453.15 C 388.35 426.72 383.46 400.21 377.61 373.89 C 385.27 371.85 393.25 371.70 401.05 370.52 Z" />
<path fill="#e3dcb9" opacity="1.00" d=" M 0.00 425.74 C 9.60 424.08 19.29 423.06 28.93 421.64 C 29.58 421.79 30.88 422.09 31.53 422.25 C 37.30 452.18 43.80 481.98 49.12 512.00 L 0.00 512.00 L 0.00 425.74 Z" />
<path fill="#e3dcb9" opacity="1.00" d=" M 185.26 449.22 C 195.98 450.31 206.80 450.63 217.54 449.77 C 221.72 470.49 226.19 491.17 229.76 512.00 L 198.30 512.00 C 195.55 500.07 193.79 487.95 190.97 476.04 C 189.09 467.10 188.14 457.92 185.26 449.22 Z" />
</g>
<g id="#77a8afff">
<path fill="#77a8af" opacity="1.00" d=" M 127.72 0.00 L 303.69 0.00 C 303.64 1.43 303.45 2.87 303.77 4.29 C 307.94 24.17 311.90 44.09 315.76 64.03 C 314.77 63.84 312.79 63.47 311.80 63.28 C 279.34 55.66 244.22 58.70 213.92 72.78 C 204.82 77.14 196.49 83.16 189.84 90.79 C 188.13 92.35 186.01 95.50 183.44 93.57 C 177.75 90.07 172.24 86.06 165.74 84.15 C 158.90 81.99 151.54 82.27 144.63 83.93 C 138.78 56.00 133.42 27.96 127.72 0.00 Z" />
<path fill="#77a8af" opacity="1.00" d=" M 359.57 375.99 C 365.54 374.92 371.67 375.11 377.61 373.89 C 383.46 400.21 388.35 426.72 393.69 453.15 C 397.83 472.73 401.38 492.43 405.57 512.00 L 229.76 512.00 C 226.19 491.17 221.72 470.49 217.54 449.77 C 235.18 448.56 252.71 445.23 269.45 439.49 C 291.37 432.16 312.32 421.07 329.40 405.35 C 338.40 397.13 345.26 386.86 350.63 375.97 C 353.44 377.44 356.62 376.35 359.57 375.99 Z" />
</g>
<g id="#a2a977ff">
<path fill="#a2a977" opacity="1.00" d=" M 342.61 0.00 L 478.91 0.00 C 484.39 25.76 489.11 51.68 494.50 77.46 C 498.96 100.90 503.97 124.23 508.44 147.66 C 509.54 153.19 510.65 158.71 512.00 164.19 L 512.00 200.20 C 488.55 203.23 465.16 206.61 441.74 209.82 C 443.38 200.07 444.79 190.10 443.32 180.24 C 442.05 165.89 437.39 151.25 427.23 140.68 C 417.58 130.81 404.38 125.78 391.60 121.36 C 384.16 118.66 381.19 110.76 377.76 104.34 C 373.26 95.91 366.85 88.55 359.14 82.90 C 353.67 55.26 348.11 27.63 342.61 0.00 Z" />
<path fill="#a2a977" opacity="1.00" d=" M 498.17 357.21 C 502.74 356.37 507.34 355.59 512.00 355.44 L 512.00 512.00 L 445.10 512.00 C 438.14 474.33 430.00 436.88 422.77 399.25 C 420.48 388.99 418.47 378.66 416.69 368.30 C 443.84 364.57 471.00 360.82 498.17 357.21 Z" />
</g>
<g id="#000000ff">
<path fill="#000000" opacity="1.00" d=" M 213.92 72.78 C 244.22 58.70 279.34 55.66 311.80 63.28 C 328.53 67.01 345.33 72.43 359.14 82.90 C 366.85 88.55 373.26 95.91 377.76 104.34 C 381.19 110.76 384.16 118.66 391.60 121.36 C 404.38 125.78 417.58 130.81 427.23 140.68 C 437.39 151.25 442.05 165.89 443.32 180.24 C 444.79 190.10 443.38 200.07 441.74 209.82 C 440.14 217.56 437.63 225.11 434.24 232.25 C 428.88 243.33 420.15 252.25 413.85 262.75 C 412.81 264.30 412.22 266.81 414.21 267.92 C 418.46 268.35 422.83 267.45 427.01 268.64 C 433.52 270.22 439.48 274.24 443.01 280.00 C 450.31 291.79 451.21 306.88 446.77 319.87 C 442.68 332.33 433.43 342.33 423.30 350.30 C 410.56 360.31 393.91 364.86 377.83 363.68 C 370.84 363.28 364.95 359.13 359.75 354.82 C 356.94 361.97 354.02 369.07 350.63 375.97 C 345.26 386.86 338.40 397.13 329.40 405.35 C 312.32 421.07 291.37 432.16 269.45 439.49 C 252.71 445.23 235.18 448.56 217.54 449.77 C 206.80 450.63 195.98 450.31 185.26 449.22 C 153.49 446.35 121.56 434.71 98.70 411.84 C 87.48 400.56 78.45 387.04 72.82 372.14 C 62.74 345.78 60.73 316.96 63.12 289.04 C 63.91 280.17 65.30 271.37 67.11 262.66 C 75.33 224.77 93.77 189.74 116.95 158.92 C 119.83 154.76 124.18 151.20 125.13 146.01 C 125.24 141.36 123.61 136.89 122.76 132.37 C 121.17 122.23 120.22 111.54 123.68 101.68 C 126.97 92.60 135.49 86.30 144.63 83.93 C 151.54 82.27 158.90 81.99 165.74 84.15 C 172.24 86.06 177.75 90.07 183.44 93.57 C 186.01 95.50 188.13 92.35 189.84 90.79 C 196.49 83.16 204.82 77.14 213.92 72.78 M 236.02 80.95 C 226.90 84.58 217.84 88.86 210.46 95.46 C 206.56 98.99 201.59 102.45 200.69 108.01 C 201.02 111.12 204.17 112.56 206.86 113.12 C 211.02 113.75 215.15 112.53 219.07 111.28 C 262.74 97.01 309.38 90.93 355.14 96.25 C 341.20 84.65 324.28 76.57 306.42 73.24 C 282.84 68.84 258.25 72.25 236.02 80.95 M 178.81 102.77 C 170.24 107.92 163.00 114.92 156.02 122.00 C 148.87 129.23 142.07 136.82 135.74 144.78 C 106.94 183.81 86.04 229.56 80.17 277.98 C 76.72 306.41 79.17 335.68 88.30 362.87 C 94.86 382.37 107.13 400.08 123.82 412.24 C 145.50 428.25 172.29 436.20 199.00 437.72 C 218.40 439.19 237.91 436.76 256.81 432.41 C 277.50 427.33 297.63 419.27 315.22 407.15 C 323.76 401.28 331.98 394.66 338.30 386.37 C 344.63 377.12 348.87 366.58 351.78 355.79 C 353.23 350.89 354.10 345.83 355.81 341.00 C 357.40 341.44 360.65 340.50 360.72 342.98 C 361.31 346.40 361.82 350.07 364.23 352.78 C 368.48 357.68 375.60 358.83 381.74 357.99 C 401.87 355.44 419.66 342.30 430.11 325.21 C 436.73 314.57 439.59 301.16 435.85 289.00 C 434.47 283.59 431.20 278.57 426.27 275.80 C 420.95 272.83 413.85 272.01 408.58 275.51 C 401.41 279.86 394.49 284.61 387.63 289.43 C 384.31 291.51 381.00 294.27 376.90 294.38 C 374.72 294.07 374.35 291.48 374.01 289.71 C 373.39 284.45 374.19 279.14 375.24 273.98 C 377.30 264.50 379.84 255.12 381.91 245.64 C 389.52 244.59 397.11 243.21 404.52 241.18 C 398.38 236.52 392.27 231.81 386.27 226.97 C 386.87 225.13 386.95 222.92 388.14 221.38 C 395.33 220.23 402.67 221.44 409.89 220.35 C 404.00 216.97 397.86 213.96 392.34 209.99 C 389.85 208.72 389.66 204.05 393.01 204.02 C 400.84 202.86 408.82 203.08 416.70 202.25 C 409.24 199.27 401.23 198.07 393.66 195.41 C 395.18 190.96 396.36 186.41 397.41 181.85 C 397.98 178.34 398.72 173.99 395.75 171.32 C 389.61 165.19 381.45 161.81 373.70 158.22 C 360.98 152.25 348.31 146.14 335.28 140.84 C 313.95 132.82 292.04 125.18 269.11 123.78 C 244.65 123.31 220.55 130.21 196.05 128.40 C 189.31 127.79 181.40 125.45 178.58 118.61 C 176.07 113.14 179.68 107.72 181.46 102.66 C 180.52 102.28 179.64 102.32 178.81 102.77 Z" />
<path fill="#000000" opacity="1.00" d=" M 160.10 156.50 C 170.08 154.54 180.54 156.94 189.24 162.03 C 189.21 167.51 189.20 173.00 189.22 178.48 C 177.31 177.80 164.93 177.17 153.56 181.48 C 148.51 183.32 143.72 186.74 141.76 191.94 C 138.82 185.85 135.11 179.87 133.26 173.42 C 139.77 164.82 149.26 158.06 160.10 156.50 Z" />
<path fill="#000000" opacity="1.00" d=" M 278.40 174.72 C 299.32 173.30 322.22 174.45 339.79 187.24 C 351.02 195.35 355.33 209.78 355.24 223.11 C 350.26 225.81 345.03 227.99 339.89 230.35 C 333.15 214.61 319.53 202.18 303.46 196.43 C 295.39 193.16 286.70 191.86 278.05 191.55 C 278.19 185.94 278.18 180.33 278.40 174.72 Z" />
<path fill="#000000" opacity="1.00" d=" M 147.23 216.21 C 155.03 213.62 163.99 219.74 164.73 227.86 C 166.01 234.61 161.74 241.83 155.09 243.69 C 147.54 246.38 138.52 240.99 137.13 233.14 C 135.25 225.98 140.11 218.06 147.23 216.21 Z" />
<path fill="#000000" opacity="1.00" d=" M 290.51 232.82 C 296.47 231.13 303.36 232.90 307.57 237.50 C 313.25 243.42 314.05 253.40 309.11 260.02 C 305.17 265.54 297.71 268.35 291.14 266.55 C 283.40 264.64 277.62 256.93 278.22 248.93 C 278.22 241.59 283.61 234.97 290.51 232.82 Z" />
<path fill="#000000" opacity="1.00" d=" M 185.79 257.57 C 197.60 252.67 210.87 256.59 221.54 262.52 C 232.86 269.02 243.00 277.52 252.09 286.83 C 235.18 277.00 216.85 268.40 197.10 266.74 C 186.61 265.84 175.67 268.47 167.52 275.32 C 171.80 267.90 177.52 260.70 185.79 257.57 Z" />
<path fill="#000000" opacity="1.00" d=" M 113.85 277.98 C 152.66 297.83 194.25 313.05 237.57 319.12 C 262.51 322.02 288.82 322.08 312.35 312.25 C 307.36 308.87 302.14 305.84 296.69 303.26 C 306.04 303.67 316.00 304.68 323.99 309.98 C 330.81 314.51 333.26 323.20 332.74 331.01 C 332.77 336.48 331.37 342.14 327.64 346.30 C 328.46 339.39 329.51 331.90 326.35 325.41 C 324.76 322.21 321.09 319.29 317.36 320.34 C 313.43 323.01 309.97 326.33 306.21 329.23 C 286.24 345.07 264.64 359.10 241.19 369.20 C 218.59 378.58 192.91 383.31 168.92 376.66 C 152.38 372.33 138.35 361.34 127.81 348.16 C 117.59 335.18 110.37 320.14 104.51 304.78 C 110.10 304.40 116.61 302.46 119.13 296.95 C 122.20 290.26 116.98 283.62 113.85 277.98 M 130.17 296.24 C 131.53 300.31 132.54 304.60 134.61 308.38 C 141.81 314.70 149.53 320.44 156.59 326.93 C 145.78 319.44 134.82 312.18 124.14 304.52 C 121.43 307.64 118.80 310.83 116.00 313.87 C 120.70 322.22 126.26 330.16 133.01 337.01 C 144.74 349.29 160.26 357.99 177.05 360.88 C 201.12 365.31 225.68 359.14 247.95 350.08 C 263.42 343.48 278.36 335.45 291.96 325.53 C 287.35 326.26 282.97 327.99 278.37 328.77 C 258.82 332.62 238.59 332.68 218.94 329.55 C 187.61 324.12 157.47 312.47 130.17 296.24 Z" />
<path fill="#000000" opacity="1.00" d=" M 406.43 291.68 C 410.18 290.95 414.03 289.74 417.87 290.48 C 421.41 291.42 425.04 294.13 425.27 298.08 C 425.62 300.92 422.77 303.61 419.97 303.09 C 416.72 302.35 416.67 297.30 412.97 297.44 C 409.46 297.65 406.39 299.73 403.29 301.20 C 400.84 302.58 397.25 304.43 398.16 307.85 C 400.85 312.05 406.48 313.65 408.47 318.40 C 409.59 321.02 406.58 322.50 404.87 323.79 C 398.69 327.74 392.81 332.45 385.81 334.86 C 383.43 335.77 382.89 332.66 384.57 331.54 C 388.28 328.49 393.55 325.40 393.40 319.93 C 391.93 315.16 386.92 312.79 384.82 308.39 C 383.62 305.47 384.31 301.84 386.81 299.83 C 392.30 295.10 399.54 293.30 406.43 291.68 Z" />
<path fill="#000000" opacity="1.00" d=" M 156.38 396.49 C 159.67 392.24 165.90 392.07 170.66 393.51 C 170.66 396.87 170.75 400.24 170.76 403.60 C 166.12 404.30 160.83 405.41 156.79 402.27 C 154.48 401.18 154.98 398.10 156.38 396.49 Z" />
</g>
<g id="#ffffffff">
<path fill="#ffffff" opacity="1.00" d=" M 236.02 80.95 C 258.25 72.25 282.84 68.84 306.42 73.24 C 324.28 76.57 341.20 84.65 355.14 96.25 C 309.38 90.93 262.74 97.01 219.07 111.28 C 215.15 112.53 211.02 113.75 206.86 113.12 C 204.17 112.56 201.02 111.12 200.69 108.01 C 201.59 102.45 206.56 98.99 210.46 95.46 C 217.84 88.86 226.90 84.58 236.02 80.95 Z" />
<path fill="#ffffff" opacity="1.00" d=" M 178.81 102.77 C 179.64 102.32 180.52 102.28 181.46 102.66 C 179.68 107.72 176.07 113.14 178.58 118.61 C 181.40 125.45 189.31 127.79 196.05 128.40 C 220.55 130.21 244.65 123.31 269.11 123.78 C 292.04 125.18 313.95 132.82 335.28 140.84 C 348.31 146.14 360.98 152.25 373.70 158.22 C 381.45 161.81 389.61 165.19 395.75 171.32 C 398.72 173.99 397.98 178.34 397.41 181.85 C 396.36 186.41 395.18 190.96 393.66 195.41 C 401.23 198.07 409.24 199.27 416.70 202.25 C 408.82 203.08 400.84 202.86 393.01 204.02 C 389.66 204.05 389.85 208.72 392.34 209.99 C 397.86 213.96 404.00 216.97 409.89 220.35 C 402.67 221.44 395.33 220.23 388.14 221.38 C 386.95 222.92 386.87 225.13 386.27 226.97 C 392.27 231.81 398.38 236.52 404.52 241.18 C 397.11 243.21 389.52 244.59 381.91 245.64 C 379.84 255.12 377.30 264.50 375.24 273.98 C 374.19 279.14 373.39 284.45 374.01 289.71 C 374.35 291.48 374.72 294.07 376.90 294.38 C 381.00 294.27 384.31 291.51 387.63 289.43 C 394.49 284.61 401.41 279.86 408.58 275.51 C 413.85 272.01 420.95 272.83 426.27 275.80 C 431.20 278.57 434.47 283.59 435.85 289.00 C 439.59 301.16 436.73 314.57 430.11 325.21 C 419.66 342.30 401.87 355.44 381.74 357.99 C 375.60 358.83 368.48 357.68 364.23 352.78 C 361.82 350.07 361.31 346.40 360.72 342.98 C 360.65 340.50 357.40 341.44 355.81 341.00 C 354.10 345.83 353.23 350.89 351.78 355.79 C 348.87 366.58 344.63 377.12 338.30 386.37 C 331.98 394.66 323.76 401.28 315.22 407.15 C 297.63 419.27 277.50 427.33 256.81 432.41 C 237.91 436.76 218.40 439.19 199.00 437.72 C 172.29 436.20 145.50 428.25 123.82 412.24 C 107.13 400.08 94.86 382.37 88.30 362.87 C 79.17 335.68 76.72 306.41 80.17 277.98 C 86.04 229.56 106.94 183.81 135.74 144.78 C 142.07 136.82 148.87 129.23 156.02 122.00 C 163.00 114.92 170.24 107.92 178.81 102.77 M 160.10 156.50 C 149.26 158.06 139.77 164.82 133.26 173.42 C 135.11 179.87 138.82 185.85 141.76 191.94 C 143.72 186.74 148.51 183.32 153.56 181.48 C 164.93 177.17 177.31 177.80 189.22 178.48 C 189.20 173.00 189.21 167.51 189.24 162.03 C 180.54 156.94 170.08 154.54 160.10 156.50 M 278.40 174.72 C 278.18 180.33 278.19 185.94 278.05 191.55 C 286.70 191.86 295.39 193.16 303.46 196.43 C 319.53 202.18 333.15 214.61 339.89 230.35 C 345.03 227.99 350.26 225.81 355.24 223.11 C 355.33 209.78 351.02 195.35 339.79 187.24 C 322.22 174.45 299.32 173.30 278.40 174.72 M 147.23 216.21 C 140.11 218.06 135.25 225.98 137.13 233.14 C 138.52 240.99 147.54 246.38 155.09 243.69 C 161.74 241.83 166.01 234.61 164.73 227.86 C 163.99 219.74 155.03 213.62 147.23 216.21 M 290.51 232.82 C 283.61 234.97 278.22 241.59 278.22 248.93 C 277.62 256.93 283.40 264.64 291.14 266.55 C 297.71 268.35 305.17 265.54 309.11 260.02 C 314.05 253.40 313.25 243.42 307.57 237.50 C 303.36 232.90 296.47 231.13 290.51 232.82 M 185.79 257.57 C 177.52 260.70 171.80 267.90 167.52 275.32 C 175.67 268.47 186.61 265.84 197.10 266.74 C 216.85 268.40 235.18 277.00 252.09 286.83 C 243.00 277.52 232.86 269.02 221.54 262.52 C 210.87 256.59 197.60 252.67 185.79 257.57 M 113.85 277.98 C 116.98 283.62 122.20 290.26 119.13 296.95 C 116.61 302.46 110.10 304.40 104.51 304.78 C 110.37 320.14 117.59 335.18 127.81 348.16 C 138.35 361.34 152.38 372.33 168.92 376.66 C 192.91 383.31 218.59 378.58 241.19 369.20 C 264.64 359.10 286.24 345.07 306.21 329.23 C 309.97 326.33 313.43 323.01 317.36 320.34 C 321.09 319.29 324.76 322.21 326.35 325.41 C 329.51 331.90 328.46 339.39 327.64 346.30 C 331.37 342.14 332.77 336.48 332.74 331.01 C 333.26 323.20 330.81 314.51 323.99 309.98 C 316.00 304.68 306.04 303.67 296.69 303.26 C 302.14 305.84 307.36 308.87 312.35 312.25 C 288.82 322.08 262.51 322.02 237.57 319.12 C 194.25 313.05 152.66 297.83 113.85 277.98 M 406.43 291.68 C 399.54 293.30 392.30 295.10 386.81 299.83 C 384.31 301.84 383.62 305.47 384.82 308.39 C 386.92 312.79 391.93 315.16 393.40 319.93 C 393.55 325.40 388.28 328.49 384.57 331.54 C 382.89 332.66 383.43 335.77 385.81 334.86 C 392.81 332.45 398.69 327.74 404.87 323.79 C 406.58 322.50 409.59 321.02 408.47 318.40 C 406.48 313.65 400.85 312.05 398.16 307.85 C 397.25 304.43 400.84 302.58 403.29 301.20 C 406.39 299.73 409.46 297.65 412.97 297.44 C 416.67 297.30 416.72 302.35 419.97 303.09 C 422.77 303.61 425.62 300.92 425.27 298.08 C 425.04 294.13 421.41 291.42 417.87 290.48 C 414.03 289.74 410.18 290.95 406.43 291.68 M 156.38 396.49 C 154.98 398.10 154.48 401.18 156.79 402.27 C 160.83 405.41 166.12 404.30 170.76 403.60 C 170.75 400.24 170.66 396.87 170.66 393.51 C 165.90 392.07 159.67 392.24 156.38 396.49 Z" />
<path fill="#ffffff" opacity="1.00" d=" M 130.17 296.24 C 157.47 312.47 187.61 324.12 218.94 329.55 C 238.59 332.68 258.82 332.62 278.37 328.77 C 282.97 327.99 287.35 326.26 291.96 325.53 C 278.36 335.45 263.42 343.48 247.95 350.08 C 225.68 359.14 201.12 365.31 177.05 360.88 C 160.26 357.99 144.74 349.29 133.01 337.01 C 126.26 330.16 120.70 322.22 116.00 313.87 C 118.80 310.83 121.43 307.64 124.14 304.52 C 134.82 312.18 145.78 319.44 156.59 326.93 C 149.53 320.44 141.81 314.70 134.61 308.38 C 132.54 304.60 131.53 300.31 130.17 296.24 Z" />
</g>
<g id="#cb737bff">
<path fill="#cb737b" opacity="1.00" d=" M 441.74 209.82 C 465.16 206.61 488.55 203.23 512.00 200.20 L 512.00 355.44 C 507.34 355.59 502.74 356.37 498.17 357.21 C 471.00 360.82 443.84 364.57 416.69 368.30 C 411.47 368.98 406.26 369.74 401.05 370.52 C 393.25 371.70 385.27 371.85 377.61 373.89 C 371.67 375.11 365.54 374.92 359.57 375.99 C 356.62 376.35 353.44 377.44 350.63 375.97 C 354.02 369.07 356.94 361.97 359.75 354.82 C 364.95 359.13 370.84 363.28 377.83 363.68 C 393.91 364.86 410.56 360.31 423.30 350.30 C 433.43 342.33 442.68 332.33 446.77 319.87 C 451.21 306.88 450.31 291.79 443.01 280.00 C 439.48 274.24 433.52 270.22 427.01 268.64 C 422.83 267.45 418.46 268.35 414.21 267.92 C 412.22 266.81 412.81 264.30 413.85 262.75 C 420.15 252.25 428.88 243.33 434.24 232.25 C 437.63 225.11 440.14 217.56 441.74 209.82 Z" />
<path fill="#cb737b" opacity="1.00" d=" M 0.00 270.19 C 22.23 267.64 44.34 264.09 66.55 261.26 C 66.69 261.61 66.97 262.31 67.11 262.66 C 65.30 271.37 63.91 280.17 63.12 289.04 C 60.73 316.96 62.74 345.78 72.82 372.14 C 78.45 387.04 87.48 400.56 98.70 411.84 C 92.36 413.19 85.89 413.83 79.48 414.75 C 62.61 416.93 45.78 419.39 28.93 421.64 C 19.29 423.06 9.60 424.08 0.00 425.74 L 0.00 270.19 Z" />
</g>
</svg>
